<svg width="550" height="550" viewBox="0 0 550 550" fill="none" xmlns="http://www.w3.org/2000/svg">
<path d="M275.001 549.167C237.531 549.167 202.118 541.97 168.761 527.576C135.404 513.182 106.274 493.534 81.3704 468.63C56.467 443.727 36.8184 414.596 22.4246 381.24C8.03086 347.883 0.833984 312.469 0.833984 275C0.833984 237.074 8.03086 201.546 22.4246 168.418C36.8184 135.289 56.467 106.273 81.3704 81.3698C106.274 56.4663 135.404 36.8177 168.761 22.4239C202.118 8.03019 237.531 0.833313 275.001 0.833313C282.769 0.833313 289.28 3.46074 294.535 8.7156C299.79 13.9705 302.417 20.4819 302.417 28.25C302.417 36.018 299.79 42.5295 294.535 47.7844C289.28 53.0392 282.769 55.6666 275.001 55.6666C214.227 55.6666 162.478 77.0288 119.754 119.753C77.0295 162.477 55.6673 214.226 55.6673 275C55.6673 335.774 77.0295 387.523 119.754 430.247C162.478 472.971 214.227 494.333 275.001 494.333C335.774 494.333 387.523 472.971 430.248 430.247C472.972 387.523 494.334 335.774 494.334 275C494.334 267.232 496.961 260.72 502.216 255.466C507.471 250.211 513.983 247.583 521.751 247.583C529.519 247.583 536.03 250.211 541.285 255.466C546.54 260.72 549.167 267.232 549.167 275C549.167 312.469 541.97 347.883 527.577 381.24C513.183 414.596 493.534 443.727 468.631 468.63C443.727 493.534 414.711 513.182 381.583 527.576C348.454 541.97 312.927 549.167 275.001 549.167Z" fill="white"/>
</svg>
