<svg width="400" height="400" viewBox="0 0 400 400" fill="none" xmlns="http://www.w3.org/2000/svg">
<path d="M322.308 128.525C323.853 130.071 324.626 131.745 324.626 133.547C324.626 135.349 323.853 137.023 322.308 138.568L303.664 157.212C302.28 158.565 300.635 159.295 298.732 159.402C296.828 159.509 295.098 158.766 293.543 157.175C291.964 155.583 291.191 153.893 291.223 152.105C291.255 150.317 292.055 148.639 293.622 147.072L312.265 128.494C313.618 127.204 315.244 126.501 317.142 126.383C319.04 126.266 320.762 126.98 322.308 128.525ZM48.7178 323.718C46.7091 323.718 45.0318 323.04 43.6857 321.684C42.3396 320.327 41.6665 318.637 41.6665 316.614C41.6665 314.591 42.3396 312.918 43.6857 311.597C45.0318 310.276 46.7091 309.615 48.7178 309.615H351.282C353.291 309.615 354.968 310.293 356.314 311.65C357.66 313.006 358.333 314.696 358.333 316.719C358.333 318.743 357.66 320.415 356.314 321.736C354.968 323.057 353.291 323.718 351.282 323.718H48.7178ZM200.052 80.7692C202.076 80.7692 203.748 81.4422 205.069 82.7883C206.391 84.1344 207.051 85.8118 207.051 87.8204V113.462C207.051 115.47 206.373 117.147 205.017 118.494C203.661 119.84 201.971 120.513 199.947 120.513C197.924 120.513 196.252 119.84 194.93 118.494C193.609 117.147 192.949 115.47 192.949 113.462V87.8204C192.949 85.8118 193.627 84.1344 194.983 82.7883C196.339 81.4422 198.029 80.7692 200.052 80.7692ZM77.8203 128.333C79.3658 126.788 81.0396 126.015 82.8415 126.015C84.6437 126.015 86.3176 126.788 87.8632 128.333L106.57 147.04C107.924 148.463 108.654 150.153 108.761 152.109C108.867 154.065 108.137 155.794 106.57 157.297C105.003 158.764 103.308 159.487 101.485 159.466C99.6615 159.444 97.9771 158.65 96.4315 157.083L77.7882 138.376C76.499 137.023 75.7957 135.397 75.6782 133.499C75.5607 131.601 76.2747 129.879 77.8203 128.333ZM119.968 235.897H280.032C273.957 219.316 263.69 205.983 249.231 195.897C234.772 185.812 218.362 180.769 200 180.769C181.638 180.769 165.228 185.812 150.769 195.897C136.31 205.983 126.043 219.316 119.968 235.897ZM101.923 250C105.769 225.833 116.928 205.903 135.4 190.208C153.872 174.514 175.406 166.667 200 166.667C224.594 166.667 246.127 174.514 264.599 190.208C283.072 205.903 294.231 225.833 298.077 250H101.923Z" fill="white"/>
</svg>
