<svg width="365" height="457" viewBox="0 0 365 457" fill="none" xmlns="http://www.w3.org/2000/svg">
<path d="M91.3327 395.833C91.3327 404.118 98.0484 410.833 106.333 410.833H258.666C266.95 410.833 273.666 404.118 273.666 395.833V342.458C273.666 317.388 264.739 295.925 246.886 278.072C229.032 260.218 207.57 251.292 182.499 251.292C157.429 251.292 135.966 260.218 118.113 278.072C100.259 295.925 91.3327 317.388 91.3327 342.458V395.833ZM182.499 205.708C207.57 205.708 229.032 196.782 246.886 178.928C264.739 161.075 273.666 139.613 273.666 114.542V61.1667C273.666 52.8824 266.95 46.1667 258.666 46.1667H106.333C98.0484 46.1667 91.3327 52.8824 91.3327 61.1667V114.542C91.3327 139.613 100.259 161.075 118.113 178.928C135.966 196.782 157.429 205.708 182.499 205.708ZM15.166 456.417C6.88173 456.417 0.166016 449.701 0.166016 441.417V425.833C0.166016 417.549 6.88174 410.833 15.166 410.833H30.7494C39.0336 410.833 45.7493 404.118 45.7493 395.833V342.458C45.7493 319.287 51.1624 297.54 61.9884 277.217C68.9769 264.099 77.746 252.681 88.2959 242.966C96.4331 235.472 96.4331 221.528 88.2959 214.034C77.746 204.319 68.9769 192.901 61.9884 179.783C51.1624 159.46 45.7493 137.713 45.7493 114.542V61.1667C45.7493 52.8824 39.0336 46.1667 30.7494 46.1667H15.166C6.88173 46.1667 0.166016 39.451 0.166016 31.1667V15.5834C0.166016 7.29909 6.88174 0.583374 15.166 0.583374H349.833C358.117 0.583374 364.833 7.2991 364.833 15.5834V31.1667C364.833 39.451 358.117 46.1667 349.833 46.1667H334.249C325.965 46.1667 319.249 52.8824 319.249 61.1667V114.542C319.249 137.713 313.836 159.46 303.01 179.783C296.022 192.901 287.253 204.319 276.703 214.034C268.566 221.528 268.566 235.472 276.703 242.966C287.253 252.681 296.022 264.099 303.01 277.217C313.836 297.54 319.249 319.287 319.249 342.458V395.833C319.249 404.118 325.965 410.833 334.249 410.833H349.833C358.117 410.833 364.833 417.549 364.833 425.833V441.417C364.833 449.701 358.117 456.417 349.833 456.417H15.166Z" fill="white"/>
</svg>
