<svg width="456" height="455" viewBox="0 0 456 455" fill="none" xmlns="http://www.w3.org/2000/svg">
<path d="M232.846 454.958C200.588 454.958 170.345 448.814 142.119 436.525C113.893 424.236 89.3155 407.627 68.3859 386.697C47.4564 365.768 30.8472 341.19 18.5583 312.964C6.26944 284.738 0.125 254.496 0.125 222.238C0.125 166.169 17.9823 116.726 53.6969 73.9068C83.1456 38.6 119.252 14.3246 162.017 1.08061C175.408 -3.0666 187.562 8.96154 186.697 22.9536C184.963 50.9793 188.25 78.5245 196.555 105.589C207.692 141.88 226.893 173.658 254.159 200.924C281.425 228.19 313.204 247.391 349.494 258.528C376.626 266.854 404.24 270.136 432.337 268.374C446.272 267.5 458.281 279.547 454.227 292.907C441.228 335.741 416.974 371.901 381.465 401.386C338.453 437.101 288.914 454.958 232.846 454.958ZM232.846 408.875C266.64 408.875 297.939 400.426 326.741 383.529C346.666 371.84 363.651 357.118 377.695 339.363C386.665 328.023 378.507 312.24 364.327 309.415C342.339 305.034 321.17 298.153 300.819 288.77C271.249 275.137 244.751 256.608 221.325 233.182C197.899 209.757 179.274 183.259 165.449 153.689C155.995 133.467 149.145 112.438 144.899 90.6004C142.12 76.3097 126.236 68.0019 114.861 77.0877C97.2868 91.1249 82.7552 108.114 71.2661 128.055C54.5609 157.049 46.2083 188.443 46.2083 222.238C46.2083 274.081 64.3536 318.148 100.644 354.439C136.935 390.73 181.002 408.875 232.846 408.875Z" fill="#888888"/>
</svg>
