<svg width="510" height="510" viewBox="0 0 510 510" fill="none" xmlns="http://www.w3.org/2000/svg">
<path d="M251.75 509.587C240.704 509.587 231.75 500.633 231.75 489.587V480.973C231.75 470.788 224.07 462.335 214.072 460.399C173.125 452.472 137.458 433.315 107.071 402.928C76.6849 372.541 57.5278 336.875 49.6004 295.928C47.6646 285.929 39.2113 278.25 29.0271 278.25H20.4121C9.36642 278.25 0.412109 269.296 0.412109 258.25V251.75C0.412109 240.704 9.36642 231.75 20.4121 231.75H29.0271C39.2113 231.75 47.6646 224.071 49.6004 214.072C57.5278 173.125 76.6849 137.458 107.071 107.072C137.458 76.6852 173.125 57.5282 214.072 49.6008C224.07 47.665 231.75 39.2117 231.75 29.0274V20.4125C231.75 9.36678 240.704 0.412476 251.75 0.412476H258.25C269.295 0.412476 278.25 9.36678 278.25 20.4125V29.0274C278.25 39.2117 285.929 47.665 295.927 49.6008C336.874 57.5282 372.541 76.6852 402.928 107.072C433.314 137.458 452.471 173.125 460.399 214.072C462.335 224.071 470.788 231.75 480.972 231.75H489.587C500.633 231.75 509.587 240.704 509.587 251.75V258.25C509.587 269.296 500.633 278.25 489.587 278.25H480.972C470.788 278.25 462.335 285.929 460.399 295.928C452.471 336.875 433.314 372.541 402.928 402.928C372.541 433.315 336.874 452.472 295.927 460.399C285.929 462.335 278.25 470.788 278.25 480.973V489.587C278.25 500.633 269.295 509.587 258.25 509.587H251.75ZM255 417.75C299.95 417.75 338.312 401.862 370.087 370.087C401.862 338.312 417.75 299.95 417.75 255C417.75 210.05 401.862 171.687 370.087 139.912C338.312 108.137 299.95 92.25 255 92.25C210.05 92.25 171.687 108.137 139.912 139.912C108.137 171.687 92.2496 210.05 92.2496 255C92.2496 299.95 108.137 338.312 139.912 370.087C171.687 401.862 210.05 417.75 255 417.75ZM255 348C229.425 348 207.531 338.894 189.318 320.681C171.106 302.469 162 280.575 162 255C162 229.425 171.106 207.531 189.318 189.319C207.531 171.106 229.425 162 255 162C280.575 162 302.468 171.106 320.681 189.319C338.893 207.531 348 229.425 348 255C348 280.575 338.893 302.469 320.681 320.681C302.468 338.894 280.575 348 255 348ZM255 301.5C267.787 301.5 278.734 296.947 287.84 287.841C296.946 278.734 301.5 267.787 301.5 255C301.5 242.212 296.946 231.266 287.84 222.159C278.734 213.053 267.787 208.5 255 208.5C242.212 208.5 231.265 213.053 222.159 222.159C213.053 231.266 208.5 242.212 208.5 255C208.5 267.787 213.053 278.734 222.159 287.841C231.265 296.947 242.212 301.5 255 301.5Z" fill="white"/>
</svg>
