<svg width="553" height="553" viewBox="0 0 553 553" fill="none" xmlns="http://www.w3.org/2000/svg">
<path d="M272.976 552.552C260.999 552.552 251.29 542.843 251.29 530.866V521.526C251.29 510.482 242.963 501.316 232.122 499.217C187.722 490.622 149.048 469.849 116.099 436.9C83.1509 403.951 62.3786 365.278 53.7828 320.879C51.6838 310.037 42.5178 301.71 31.4749 301.71H22.1335C10.1565 301.71 0.447266 292.001 0.447266 280.024V272.976C0.447266 260.999 10.1565 251.29 22.1335 251.29H31.4749C42.5178 251.29 51.6838 242.963 53.7828 232.121C62.3786 187.722 83.1509 149.048 116.099 116.1C149.048 83.1508 187.722 62.3786 232.122 53.7828C242.963 51.6838 251.29 42.5178 251.29 31.4748V22.1336C251.29 10.1565 260.999 0.447266 272.976 0.447266H280.024C292.001 0.447266 301.711 10.1565 301.711 22.1336V31.4748C301.711 42.5178 310.037 51.6838 320.878 53.7828C365.278 62.3786 403.952 83.1508 436.901 116.1C469.849 149.048 490.621 187.722 499.217 232.121C501.317 242.963 510.482 251.29 521.525 251.29H530.866C542.844 251.29 552.553 260.999 552.553 272.976V280.024C552.553 292.001 542.844 301.71 530.866 301.71H521.525C510.482 301.71 501.317 310.037 499.217 320.879C490.621 365.278 469.849 403.951 436.901 436.9C403.952 469.849 365.278 490.622 320.878 499.217C310.037 501.316 301.711 510.482 301.711 521.526V530.866C301.711 542.843 292.001 552.552 280.024 552.552H272.976ZM276.5 452.972C325.24 452.972 366.837 435.745 401.291 401.29C435.745 366.836 452.972 325.24 452.972 276.5C452.972 227.76 435.745 186.163 401.291 151.709C366.837 117.254 325.24 100.028 276.5 100.028C227.761 100.028 186.163 117.254 151.709 151.709C117.255 186.163 100.028 227.76 100.028 276.5C100.028 325.24 117.255 366.836 151.709 401.29C186.163 435.745 227.761 452.972 276.5 452.972ZM276.5 377.341C248.769 377.341 225.029 367.467 205.281 347.719C185.533 327.971 175.659 304.231 175.659 276.5C175.659 248.769 185.533 225.029 205.281 205.281C225.029 185.533 248.769 175.659 276.5 175.659C304.232 175.659 327.971 185.533 347.719 205.281C367.467 225.029 377.342 248.769 377.342 276.5C377.342 304.231 367.467 327.971 347.719 347.719C327.971 367.467 304.232 377.341 276.5 377.341ZM276.5 326.921C290.366 326.921 302.236 321.984 312.109 312.11C321.983 302.235 326.921 290.365 326.921 276.5C326.921 262.634 321.983 250.765 312.109 240.89C302.236 231.016 290.366 226.079 276.5 226.079C262.634 226.079 250.764 231.016 240.89 240.89C231.017 250.765 226.08 262.634 226.08 276.5C226.08 290.365 231.017 302.235 240.89 312.11C250.764 321.984 262.634 326.921 276.5 326.921Z" fill="#444444"/>
</svg>
