<svg width="400" height="400" viewBox="0 0 400 400" fill="none" xmlns="http://www.w3.org/2000/svg">
<rect width="400" height="400" rx="200" fill="black"/>
<path d="M295.786 113.348C296.997 114.557 297.602 115.866 297.602 117.275C297.602 118.685 296.997 119.994 295.786 121.202L281.186 135.782C280.101 136.841 278.814 137.412 277.322 137.495C275.832 137.579 274.477 136.998 273.259 135.753C272.023 134.509 271.417 133.187 271.442 131.789C271.467 130.39 272.093 129.078 273.321 127.853L287.921 113.323C288.981 112.315 290.254 111.765 291.741 111.673C293.227 111.581 294.576 112.139 295.786 113.348ZM81.5222 266C79.9492 266 78.6355 265.47 77.5813 264.409C76.5271 263.348 76 262.027 76 260.444C76 258.862 76.5271 257.554 77.5813 256.521C78.6355 255.488 79.9492 254.971 81.5222 254.971H318.478C320.051 254.971 321.364 255.501 322.419 256.562C323.473 257.623 324 258.944 324 260.527C324 262.109 323.473 263.417 322.419 264.45C321.364 265.483 320.051 266 318.478 266H81.5222ZM200.041 76C201.626 76 202.935 76.5264 203.97 77.5791C205.005 78.6318 205.522 79.9436 205.522 81.5145V101.567C205.522 103.138 204.991 104.45 203.929 105.503C202.867 106.556 201.543 107.082 199.959 107.082C198.374 107.082 197.065 106.556 196.03 105.503C194.995 104.45 194.478 103.138 194.478 101.567V81.5145C194.478 79.9436 195.009 78.6318 196.071 77.5791C197.133 76.5264 198.457 76 200.041 76ZM104.314 113.198C105.525 111.989 106.835 111.385 108.247 111.385C109.658 111.385 110.969 111.989 112.179 113.198L126.83 127.828C127.89 128.941 128.462 130.262 128.545 131.792C128.629 133.321 128.057 134.674 126.83 135.85C125.603 136.997 124.275 137.562 122.847 137.545C121.419 137.529 120.1 136.908 118.89 135.682L104.289 121.052C103.279 119.994 102.729 118.722 102.637 117.238C102.544 115.753 103.104 114.407 104.314 113.198ZM137.322 197.319H262.678C257.92 184.352 249.879 173.925 238.556 166.037C227.232 158.15 214.38 154.206 200 154.206C185.62 154.206 172.768 158.15 161.444 166.037C150.121 173.925 142.08 184.352 137.322 197.319ZM123.19 208.348C126.202 189.449 134.942 173.862 149.408 161.588C163.875 149.314 180.739 143.177 200 143.177C219.261 143.177 236.125 149.314 250.592 161.588C265.058 173.862 273.798 189.449 276.81 208.348H123.19Z" fill="white"/>
</svg>
