<svg width="444" height="444" viewBox="0 0 444 444" fill="none" xmlns="http://www.w3.org/2000/svg">
<path d="M221.999 282.5C238.805 282.5 253.09 276.618 264.854 264.854C276.617 253.09 282.499 238.806 282.499 222C282.499 205.194 276.617 190.91 264.854 179.146C253.09 167.382 238.805 161.5 221.999 161.5C205.194 161.5 190.909 167.382 179.145 179.146C167.381 190.91 161.499 205.194 161.499 222C161.499 238.806 167.381 253.09 179.145 264.854C190.909 276.618 205.194 282.5 221.999 282.5ZM221.999 322.833C194.102 322.833 170.322 313.002 150.66 293.34C130.997 273.677 121.166 249.897 121.166 222C121.166 194.103 130.997 170.323 150.66 150.66C170.322 130.998 194.102 121.167 221.999 121.167C249.897 121.167 273.676 130.998 293.339 150.66C313.001 170.323 322.833 194.103 322.833 222C322.833 249.897 313.001 273.677 293.339 293.34C273.676 313.002 249.897 322.833 221.999 322.833ZM80.8327 222C80.8327 233.138 71.8038 242.167 60.666 242.167H20.3327C9.19492 242.167 0.166016 233.138 0.166016 222V222C0.166016 210.862 9.19494 201.833 20.3327 201.833H60.666C71.8038 201.833 80.8327 210.862 80.8327 222V222ZM443.833 222C443.833 233.138 434.804 242.167 423.666 242.167H383.333C372.195 242.167 363.166 233.138 363.166 222V222C363.166 210.862 372.195 201.833 383.333 201.833H423.666C434.804 201.833 443.833 210.862 443.833 222V222ZM221.999 80.8333C210.862 80.8333 201.833 71.8044 201.833 60.6666V20.3333C201.833 9.19554 210.862 0.166626 221.999 0.166626V0.166626C233.137 0.166626 242.166 9.19555 242.166 20.3333V60.6666C242.166 71.8044 233.137 80.8333 221.999 80.8333V80.8333ZM221.999 443.833C210.862 443.833 201.833 434.804 201.833 423.667V383.333C201.833 372.196 210.862 363.167 221.999 363.167V363.167C233.137 363.167 242.166 372.196 242.166 383.333V423.667C242.166 434.804 233.137 443.833 221.999 443.833V443.833ZM122.661 121.651C115.19 129.697 102.575 130.058 94.656 122.452L72.8018 101.464C64.7142 93.6963 64.4735 80.8371 72.2647 72.7725V72.7725C80.2474 64.5097 93.4962 64.5307 101.453 72.8187L122.437 94.6772C129.648 102.188 129.746 114.021 122.661 121.651V121.651ZM371.733 371.229C363.75 379.491 350.502 379.472 342.544 371.186L321.302 349.067C313.992 341.456 314.002 329.429 321.325 321.83V321.83C328.844 314.027 341.261 313.786 349.077 321.292L371.195 342.535C379.284 350.303 379.525 363.163 371.733 371.229V371.229ZM322.348 122.662C314.303 115.191 313.942 102.576 321.547 94.6567L342.536 72.8025C350.303 64.7148 363.162 64.4741 371.227 72.2653V72.2653C379.49 80.248 379.469 93.4968 371.181 101.453L349.322 122.437C341.811 129.648 329.978 129.747 322.348 122.662V122.662ZM72.7704 371.733C64.5079 363.751 64.5275 350.503 72.8136 342.545L94.932 321.303C102.543 313.993 114.571 314.003 122.17 321.325V321.325C129.973 328.845 130.213 341.262 122.707 349.078L101.465 371.196C93.6964 379.284 80.8358 379.525 72.7704 371.733V371.733Z" fill="white"/>
</svg>
