<svg width="500" height="500" viewBox="0 0 500 500" fill="none" xmlns="http://www.w3.org/2000/svg">
<path d="M264.034 494.191C256.249 501.86 243.749 501.86 235.964 494.191L179.347 438.419C175.605 434.733 170.563 432.667 165.311 432.667H87.3324C76.2867 432.667 67.3324 423.712 67.3324 412.667V334.688C67.3324 329.436 65.2664 324.394 61.5805 320.653L5.80834 264.035C-1.8609 256.25 -1.8609 243.75 5.80835 235.965L61.5805 179.347C65.2664 175.606 67.3324 170.564 67.3324 165.312V87.3333C67.3324 76.2876 76.2867 67.3333 87.3324 67.3333H165.311C170.563 67.3333 175.605 65.2673 179.347 61.5814L235.964 5.80926C243.749 -1.85999 256.249 -1.85998 264.034 5.80926L320.652 61.5814C324.393 65.2673 329.435 67.3333 334.687 67.3333H412.666C423.711 67.3333 432.666 76.2876 432.666 87.3333V165.312C432.666 170.564 434.732 175.606 438.418 179.347L494.19 235.965C501.859 243.75 501.859 256.25 494.19 264.035L438.418 320.653C434.732 324.394 432.666 329.436 432.666 334.688V412.667C432.666 423.712 423.711 432.667 412.666 432.667H334.687C329.435 432.667 324.393 434.733 320.652 438.419L264.034 494.191ZM249.999 364.167C281.585 364.167 308.51 353.035 330.772 330.773C353.035 308.51 364.166 281.586 364.166 250C364.166 218.414 353.035 191.49 330.772 169.227C308.51 146.965 281.585 135.833 249.999 135.833C218.413 135.833 191.489 146.965 169.226 169.227C146.964 191.49 135.832 218.414 135.832 250C135.832 281.586 146.964 308.51 169.226 330.773C191.489 353.035 218.413 364.167 249.999 364.167ZM249.999 318.5C230.971 318.5 214.798 311.84 201.478 298.521C188.159 285.201 181.499 269.028 181.499 250C181.499 230.972 188.159 214.799 201.478 201.479C214.798 188.16 230.971 181.5 249.999 181.5C269.027 181.5 285.2 188.16 298.52 201.479C311.839 214.799 318.499 230.972 318.499 250C318.499 269.028 311.839 285.201 298.52 298.521C285.2 311.84 269.027 318.5 249.999 318.5ZM235.857 429.941C243.667 437.752 256.331 437.752 264.141 429.941L301.225 392.858C304.975 389.107 310.062 387 315.367 387H366.999C378.045 387 386.999 378.046 386.999 367V315.368C386.999 310.063 389.106 304.976 392.857 301.225L429.94 264.142C437.751 256.332 437.751 243.668 429.94 235.858L392.857 198.775C389.106 195.024 386.999 189.937 386.999 184.632V133C386.999 121.954 378.045 113 366.999 113H315.367C310.062 113 304.975 110.893 301.225 107.142L264.141 70.0588C256.331 62.2483 243.667 62.2483 235.857 70.0588L198.774 107.142C195.023 110.893 189.936 113 184.631 113H132.999C121.953 113 112.999 121.954 112.999 133V184.632C112.999 189.937 110.892 195.024 107.141 198.775L70.0579 235.858C62.2474 243.668 62.2474 256.332 70.0579 264.142L107.141 301.225C110.892 304.976 112.999 310.063 112.999 315.368V367C112.999 378.046 121.953 387 132.999 387H184.631C189.936 387 195.023 389.107 198.774 392.858L235.857 429.941Z" fill="#888888"/>
</svg>
