<svg width="439" height="439" viewBox="0 0 439 439" fill="none" xmlns="http://www.w3.org/2000/svg">
<path d="M219.5 438.125C158.771 438.125 107.151 416.87 64.6406 374.359C22.1302 331.849 0.875 280.229 0.875 219.5C0.875 158.771 22.1302 107.151 64.6406 64.6406C107.151 22.1302 158.771 0.875 219.5 0.875C225.168 0.875 230.735 1.07743 236.201 1.48229V1.48229C242.073 1.91726 244.033 9.48973 239.7 13.4773C228.846 23.4678 219.784 35.3603 212.516 49.1547C202.597 67.9807 197.638 88.325 197.638 110.188C197.638 146.625 210.391 177.597 235.897 203.103C261.403 228.609 292.375 241.363 328.813 241.363C351.08 241.363 371.525 236.403 390.149 226.484C403.791 219.218 415.586 210.16 425.535 199.31C429.514 194.97 437.083 196.927 437.518 202.799V202.799C437.923 208.265 438.125 213.832 438.125 219.5C438.125 280.229 416.87 331.849 374.359 374.359C331.849 416.87 280.229 438.125 219.5 438.125ZM219.5 389.542C255.128 389.542 287.112 379.724 315.452 360.088C336.824 345.28 353.822 327.076 366.445 305.475C371.629 296.604 363.266 286.6 353.104 288.124V288.124C345.007 289.339 336.91 289.946 328.813 289.946C279.015 289.946 236.605 272.436 201.585 237.415C166.564 202.395 149.054 159.985 149.054 110.188C149.054 102.09 149.661 93.9931 150.876 85.8958V85.8958C152.4 75.734 142.396 67.3707 133.525 72.5552C111.924 85.178 93.72 102.176 78.912 123.548C59.2762 151.888 49.4583 183.872 49.4583 219.5C49.4583 266.464 66.0576 306.545 99.2563 339.744C132.455 372.942 172.536 389.542 219.5 389.542Z" fill="white"/>
</svg>
